<svg width="30" height="30" viewBox="0 0 30 30" fill="none" xmlns="http://www.w3.org/2000/svg">
<rect width="30" height="30" rx="15" fill="#5BCD6E"/>
<path d="M7 19.6656V21C7 22.1031 9.6875 23 13 23C16.3125 23 19 22.1031 19 21V19.6656C17.7094 20.575 15.35 21 13 21C10.65 21 8.29062 20.575 7 19.6656ZM17 11C20.3125 11 23 10.1031 23 9C23 7.89688 20.3125 7 17 7C13.6875 7 11 7.89688 11 9C11 10.1031 13.6875 11 17 11ZM7 16.3875V18C7 19.1031 9.6875 20 13 20C16.3125 20 19 19.1031 19 18V16.3875C17.7094 17.45 15.3469 18 13 18C10.6531 18 8.29062 17.45 7 16.3875ZM20 16.7312C21.7906 16.3844 23 15.7406 23 15V13.6656C22.275 14.1781 21.2094 14.5281 20 14.7438V16.7312ZM13 12C9.6875 12 7 13.1188 7 14.5C7 15.8813 9.6875 17 13 17C16.3125 17 19 15.8813 19 14.5C19 13.1188 16.3125 12 13 12ZM19.8531 13.7594C21.7281 13.4219 23 12.7594 23 12V10.6656C21.8906 11.45 19.9844 11.8719 17.9781 11.9719C18.9 12.4188 19.5781 13.0188 19.8531 13.7594Z" fill="white"/>
</svg>
