<svg width="80" height="80" viewBox="0 0 80 80" fill="none" xmlns="http://www.w3.org/2000/svg">
<circle cx="40" cy="40" r="39" stroke="#E5E5E5" stroke-width="2"/>
<path d="M57.2829 42.3559C58.0682 41.1697 58.4604 39.864 58.4604 38.4378C58.4604 36.787 57.8521 35.3532 56.6345 34.1341C55.4163 32.9162 53.9739 32.3074 52.3075 32.3074H48.0767C48.8457 30.721 49.2309 29.1824 49.2309 27.6923C49.2309 25.8172 48.9497 24.327 48.3893 23.2212C47.8283 22.1151 47.0109 21.302 45.9371 20.781C44.863 20.2602 43.6535 20 42.3075 20C41.4898 20 40.7689 20.2964 40.1439 20.8896C39.455 21.5625 38.9582 22.4281 38.6538 23.4858C38.3493 24.5432 38.1048 25.557 37.9207 26.5266C37.7365 27.496 37.4518 28.1811 37.0674 28.5817C36.2819 29.431 35.4247 30.4569 34.4952 31.6587C32.8767 33.7578 31.7788 34.9999 31.2021 35.3847H24.6159C23.7666 35.3847 23.0413 35.6856 22.4403 36.286C21.8396 36.8871 21.5391 37.6122 21.5391 38.4617V53.8457C21.5391 54.6951 21.8393 55.42 22.4403 56.021C23.0417 56.6221 23.7666 56.9228 24.6159 56.9228H31.5383C31.8909 56.9228 32.9965 57.2433 34.8554 57.8843C36.8267 58.5735 38.5614 59.0982 40.0596 59.4589C41.558 59.8196 43.0764 60 44.6149 60H46.8498H47.7157C49.9751 60 51.7938 59.3546 53.1721 58.0644C54.55 56.7742 55.2313 55.0155 55.2155 52.788C56.177 51.554 56.6576 50.1278 56.6576 48.5094C56.6576 48.1571 56.634 47.8126 56.5857 47.4757C57.1944 46.4024 57.4995 45.2485 57.4995 44.0145C57.4992 43.4376 57.4272 42.8844 57.2829 42.3559ZM27.2361 53.3892C26.9316 53.6935 26.5711 53.8462 26.1544 53.8462C25.7377 53.8462 25.3771 53.6936 25.0726 53.3892C24.7682 53.0851 24.6159 52.7244 24.6159 52.3074C24.6159 51.8908 24.7679 51.5304 25.0726 51.2257C25.3774 50.9212 25.7377 50.769 26.1544 50.769C26.5711 50.769 26.9316 50.9212 27.2361 51.2257C27.5406 51.5303 27.6929 51.8907 27.6929 52.3074C27.6929 52.7244 27.5406 53.0851 27.2361 53.3892ZM54.8679 40.41C54.5233 41.147 54.0945 41.5236 53.5817 41.5394C53.822 41.812 54.0225 42.1929 54.1828 42.6813C54.3429 43.1702 54.4225 43.6147 54.4225 44.0155C54.4225 45.1207 53.9984 46.0745 53.149 46.8755C53.4378 47.3881 53.5818 47.9412 53.5818 48.5338C53.5818 49.1268 53.4418 49.7157 53.1612 50.3005C52.8811 50.8848 52.5002 51.3056 52.0196 51.5619C52.0997 52.0426 52.1394 52.4914 52.1394 52.908C52.1394 55.5841 50.6009 56.9222 47.5237 56.9222H44.616C42.5163 56.9222 39.7764 56.3376 36.3947 55.1675C36.3145 55.1355 36.0825 55.0511 35.6976 54.9151C35.3128 54.7791 35.0285 54.6788 34.8441 54.6149C34.6597 54.5504 34.3795 54.4582 34.0027 54.3384C33.6259 54.2179 33.3218 54.1296 33.0892 54.0738C32.857 54.0179 32.5924 53.9658 32.2962 53.9176C31.9999 53.8696 31.7474 53.8457 31.5391 53.8457H30.7699V38.4623H31.5391C31.7955 38.4623 32.0799 38.3899 32.3924 38.246C32.7048 38.1017 33.0255 37.8855 33.3539 37.5969C33.6826 37.3084 33.9908 37.024 34.2794 36.7434C34.5679 36.463 34.8884 36.1105 35.241 35.686C35.5936 35.2612 35.87 34.9208 36.0704 34.6643C36.2706 34.4079 36.523 34.0793 36.8275 33.6787C37.1319 33.2782 37.3163 33.0377 37.3804 32.9575C38.2616 31.8679 38.8786 31.1388 39.2311 30.77C39.8882 30.0812 40.3649 29.2038 40.6613 28.1381C40.9581 27.0722 41.2024 26.0666 41.394 25.1213C41.5862 24.1759 41.891 23.4946 42.3082 23.0779C43.8462 23.0779 44.8721 23.4544 45.3848 24.2076C45.8974 24.9607 46.1538 26.1227 46.1538 27.6931C46.1538 28.6385 45.7689 29.9245 44.9995 31.5509C44.2305 33.1775 43.8462 34.4556 43.8462 35.385H52.3072C53.1093 35.385 53.8221 35.6933 54.4468 36.3106C55.072 36.9275 55.385 37.6445 55.385 38.462C55.3847 39.0228 55.2124 39.6719 54.8679 40.41Z" fill="#E5313F"/>
</svg>
