<svg width="80" height="80" viewBox="0 0 80 80" fill="none" xmlns="http://www.w3.org/2000/svg">
<circle cx="40" cy="40" r="39" stroke="#E5E5E5" stroke-width="2"/>
<path fill-rule="evenodd" clip-rule="evenodd" d="M33.3327 24.1666H44.166L51.666 31.6666V50.8333C51.666 51.7538 50.9198 52.5 49.9993 52.5H33.3327C32.4122 52.5 31.666 51.7538 31.666 50.8333V25.8333C31.666 24.9128 32.4122 24.1666 33.3327 24.1666ZM49.166 31.6666L44.166 26.6666V30.8333C44.166 31.2935 44.5391 31.6666 44.9993 31.6666H49.166ZM47.2553 37.744C47.5807 38.0695 47.5807 38.5971 47.2553 38.9225L39.9993 46.1785L36.0768 42.2559C35.7513 41.9305 35.7513 41.4028 36.0768 41.0774C36.4022 40.752 36.9298 40.752 37.2553 41.0774L39.9993 43.8215L46.0768 37.744C46.4022 37.4186 46.9298 37.4186 47.2553 37.744Z" fill="#E5313F"/>
<path d="M30.0007 29.1666H28.334V51.6666C28.334 53.9678 30.1995 55.8333 32.5007 55.8333H48.334V54.1666H32.5007C31.1199 54.1666 30.0007 53.0474 30.0007 51.6666V29.1666Z" fill="#E5313F"/>
</svg>
