<svg width="80" height="80" viewBox="0 0 80 80" fill="none" xmlns="http://www.w3.org/2000/svg">
<circle cx="40" cy="40" r="39" stroke="#E5E5E5" stroke-width="2"/>
<path d="M53.3333 39.7167C52.8913 39.7167 52.4674 39.8923 52.1548 40.2048C51.8423 40.5174 51.6667 40.9413 51.6667 41.3833V50.6667C51.6667 50.9319 51.5613 51.1862 51.3738 51.3738C51.1862 51.5613 50.9319 51.6667 50.6667 51.6667H29.3333C29.0681 51.6667 28.8138 51.5613 28.6262 51.3738C28.4387 51.1862 28.3333 50.9319 28.3333 50.6667V29.3333C28.3333 29.0681 28.4387 28.8138 28.6262 28.6262C28.8138 28.4387 29.0681 28.3333 29.3333 28.3333H45.2833C45.7254 28.3333 46.1493 28.1577 46.4618 27.8452C46.7744 27.5326 46.95 27.1087 46.95 26.6667C46.95 26.2246 46.7744 25.8007 46.4618 25.4882C46.1493 25.1756 45.7254 25 45.2833 25H29.3333C28.1854 25.0044 27.0858 25.4623 26.2741 26.2741C25.4623 27.0858 25.0044 28.1854 25 29.3333V50.6667C25.0044 51.8146 25.4623 52.9142 26.2741 53.7259C27.0858 54.5377 28.1854 54.9956 29.3333 55H50.6667C51.8146 54.9956 52.9142 54.5377 53.7259 53.7259C54.5377 52.9142 54.9956 51.8146 55 50.6667V41.3833C55 40.9413 54.8244 40.5174 54.5118 40.2048C54.1993 39.8923 53.7754 39.7167 53.3333 39.7167Z" fill="#E5313F"/>
<path d="M37.8671 38.3334C37.5543 38.0521 37.1468 37.8995 36.7262 37.9061C36.3056 37.9128 35.9031 38.0782 35.5994 38.3693C35.2957 38.6603 35.1133 39.0554 35.0888 39.4753C35.0642 39.8952 35.1994 40.3089 35.4671 40.6334L39.1671 44.5167C39.322 44.6792 39.5081 44.8087 39.7143 44.8975C39.9206 44.9863 40.1426 45.0325 40.3671 45.0334C40.5904 45.0347 40.8117 44.9911 41.0178 44.9052C41.224 44.8193 41.4108 44.6928 41.5671 44.5334L52.8671 32.8667C53.0203 32.7091 53.141 32.5229 53.2222 32.3187C53.3034 32.1144 53.3437 31.8962 53.3406 31.6764C53.3375 31.4567 53.2911 31.2397 53.2042 31.0378C53.1172 30.836 52.9913 30.6532 52.8338 30.5C52.6762 30.3468 52.4899 30.2261 52.2857 30.1449C52.0815 30.0637 51.8633 30.0234 51.6435 30.0265C51.4237 30.0296 51.2067 30.076 51.0049 30.1629C50.803 30.2499 50.6203 30.3758 50.4671 30.5334L40.3837 40.9667L37.8671 38.3334Z" fill="#E5313F"/>
</svg>
