<svg width="80" height="80" viewBox="0 0 80 80" fill="none" xmlns="http://www.w3.org/2000/svg">
<circle cx="40" cy="40" r="39" stroke="#E5E5E5" stroke-width="2"/>
<path d="M53 40C53 41.104 52.104 42 51 42H35C33.896 42 33 41.104 33 40C33 38.896 33.896 38 35 38H51C52.104 38 53 38.896 53 40Z" fill="#E5313F"/>
<path d="M53 30C53 31.104 52.104 32 51 32H35C33.896 32 33 31.104 33 30C33 28.896 33.896 28 35 28H51C52.104 28 53 28.896 53 30Z" fill="#E5313F"/>
<path d="M53 50C53 51.104 52.104 52 51 52H35C33.896 52 33 51.104 33 50C33 48.896 33.896 48 35 48H51C52.104 48 53 48.896 53 50Z" fill="#E5313F"/>
<path d="M27 30C27 31.103 27.897 32 29 32C30.103 32 31 31.103 31 30C31 28.897 30.103 28 29 28C27.897 28 27 28.897 27 30Z" fill="#E5313F"/>
<path d="M27 40C27 41.103 27.897 42 29 42C30.103 42 31 41.103 31 40C31 38.897 30.103 38 29 38C27.897 38 27 38.897 27 40Z" fill="#E5313F"/>
<path d="M27 50C27 51.103 27.897 52 29 52C30.103 52 31 51.103 31 50C31 48.897 30.103 48 29 48C27.897 48 27 48.897 27 50Z" fill="#E5313F"/>
</svg>
