<svg width="80" height="80" viewBox="0 0 80 80" fill="none" xmlns="http://www.w3.org/2000/svg">
<circle cx="40" cy="40" r="39" stroke="#E5E5E5" stroke-width="2"/>
<g clip-path="url(#clip0_220_1435)">
<path d="M21.2499 51.2501H36.25C36.941 51.2501 37.5002 50.8299 37.5002 50.3125V48.4372C37.5002 47.9198 36.941 47.5 36.25 47.5H21.2499C20.559 47.5 20 47.9197 20 48.4372V50.3125C20 50.8299 20.559 51.2501 21.2499 51.2501ZM21.2499 56.2502H36.25C36.941 56.2502 37.5002 55.8301 37.5002 55.3126V53.4373C37.5002 52.9198 36.941 52.5001 36.25 52.5001H21.2499C20.559 52.5001 20 52.9198 20 53.4373V55.3126C20 55.8301 20.559 56.2502 21.2499 56.2502ZM21.2499 46.2495H36.25C36.941 46.2495 37.5002 45.8298 37.5002 45.3123V43.4378C37.5002 42.92 36.941 42.4998 36.25 42.4998H21.2499C20.559 42.4997 20 42.9199 20 43.4378V45.3123C20 45.8298 20.559 46.2495 21.2499 46.2495ZM39.9453 45.752C39.9646 45.6054 40.0001 45.4638 40.0001 45.3123V43.4378C40.0001 41.5087 38.3531 39.9998 36.25 39.9998H31.25C31.25 36.5477 34.048 33.75 37.5002 33.75C40.9523 33.75 43.7502 36.5477 43.7502 39.9998C43.7503 42.5829 42.1816 44.7994 39.9453 45.752ZM20 28.7499H55.0003V51.2501H39.8512C39.9403 50.9523 40.0001 50.6395 40.0001 50.3125V48.75H47.5003C47.5003 45.9887 49.7391 43.7499 52.5001 43.7499V36.25C49.7391 36.25 47.5003 34.0111 47.5003 31.25H27.5001C27.5001 34.0112 25.2615 36.25 22.5001 36.25V39.9998H21.2499C20.8067 39.9998 20.3918 40.0805 20 40.2025V28.7499ZM60.0001 23.7499V48.75H57.5004V26.2499H22.5001V23.7499H60.0001Z" fill="#E5313F"/>
</g>
<defs>
<clipPath id="clip0_220_1435">
<rect width="40.0001" height="40" fill="white" transform="translate(20 20)"/>
</clipPath>
</defs>
</svg>
