<svg width="40" height="40" viewBox="0 0 40 40" fill="none" xmlns="http://www.w3.org/2000/svg">
<circle opacity="0.1" cx="20" cy="20" r="20" fill="#252C42"/>
<path d="M27.6922 17.8079C27.6922 13.5597 24.2484 10.1156 19.9999 10.1156C15.7517 10.1156 12.3076 13.5597 12.3076 17.8079C12.3076 19.6248 12.9394 21.2941 13.9927 22.6102C13.993 22.6105 13.9933 22.611 13.993 22.6112C13.9927 22.6115 13.9925 22.6118 13.992 22.6118C15.9781 25.0923 18.7851 28.5982 19.6994 29.74C19.7725 29.831 19.883 29.8841 19.9997 29.8843C20.1166 29.8843 20.2274 29.8315 20.3002 29.7402C21.214 28.5987 24.0202 25.0943 26.0063 22.6135C26.0066 22.6133 26.0068 22.6128 26.0066 22.6125C26.0063 22.6123 26.0061 22.612 26.0056 22.612C27.0599 21.2953 27.6922 19.6261 27.6922 17.8079ZM24.7607 21.7077L19.9999 27.6541L15.2853 21.7659L15.2371 21.7059C15.223 21.6866 15.2086 21.6677 15.1938 21.6489C14.312 20.5471 13.8461 19.2189 13.8461 17.8079C13.8461 14.4146 16.6068 11.6541 19.9999 11.6541C23.393 11.6541 26.1538 14.4146 26.1538 17.8079C26.1538 19.2197 25.6874 20.5484 24.8045 21.6505C24.7897 21.6692 24.7751 21.6882 24.7607 21.7077Z" fill="#252C42"/>
<path d="M19.9997 19.1666C20.9201 19.1666 21.6663 18.4204 21.6663 17.4999C21.6663 16.5794 20.9201 15.8333 19.9997 15.8333C19.0792 15.8333 18.333 16.5794 18.333 17.4999C18.333 18.4204 19.0792 19.1666 19.9997 19.1666Z" fill="#252C42"/>
</svg>
