<svg width="100" height="18" viewBox="0 0 100 18" fill="none" xmlns="http://www.w3.org/2000/svg">
<path d="M13.0378 0.0175629C19.4665 0.0175629 25.1564 2.01054 25.1564 8.82289C25.1564 15.6352 19.4865 17.6282 13.0378 17.6282H7.42773V0.0175629H13.0378ZM13.1377 3.73174H12.0795V13.9322H13.1377C16.5516 13.9322 20.2451 13.5517 20.2451 8.84101C20.2451 4.0941 16.5516 3.73174 13.1377 3.73174Z" fill="white"/>
<path d="M32.9024 0.0179138H37.9934L45.4602 17.6467H40.3892L39.1513 14.4579H31.6246L30.3868 17.6467H25.4355L32.9024 0.0179138ZM33.082 10.7619H37.7338L35.4179 4.72858L33.082 10.7619Z" fill="white"/>
<path d="M50.8874 3.73206H44.5586V0.0178833H61.868V3.73206H55.5192V17.6467H50.8675V3.73206H50.8874Z" fill="white"/>
<path d="M63.8232 0.0178833H78.9565V3.73206H68.475V6.73965H78.3576V10.4538H68.475V13.9325H78.9565V17.6467H63.8232V0.0178833Z" fill="white"/>
<path d="M87.1624 8.66036L80.0749 -3.05176e-05H85.5652L89.8975 5.30853L94.2898 -3.05176e-05H99.6803L92.5928 8.606L99.9997 17.6287H94.5493L89.8376 11.9216L85.1259 17.6287H79.7754L87.1624 8.66036Z" fill="white"/>
<path d="M4.97171 13.1357H0V17.647H4.97171V13.1357Z" fill="#E6313F"/>
<path d="M4.97171 6.5766H0V11.088H4.97171V6.5766Z" fill="white"/>
<path d="M4.97171 0.0174103H0V4.52878H4.97171V0.0174103Z" fill="white"/>
</svg>
