<svg width="136" height="24" viewBox="0 0 136 24" fill="none" xmlns="http://www.w3.org/2000/svg">
<path d="M17.7323 0.0239258C26.4752 0.0239258 34.2136 2.73437 34.2136 11.9992C34.2136 21.264 26.5024 23.9744 17.7323 23.9744H10.1025V0.0239258H17.7323ZM17.868 5.07521H16.429V18.9478H17.868C22.511 18.9478 27.5342 18.4303 27.5342 12.0238C27.5342 5.56802 22.511 5.07521 17.868 5.07521Z" fill="#252C42"/>
<path d="M44.7486 0.0244141H51.6724L61.8273 23.9995H54.9307L53.2472 19.6628H43.0109L41.3275 23.9995H34.5938L44.7486 0.0244141ZM44.993 14.6362H51.3194L48.1698 6.43092L44.993 14.6362Z" fill="#252C42"/>
<path d="M69.2078 5.07564H60.6006V0.024353H84.1414V5.07564H75.5071V23.9995H69.1806V5.07564H69.2078Z" fill="#252C42"/>
<path d="M86.7998 0.024353H107.381V5.07564H93.1262V9.16595H106.567V14.2172H93.1262V18.9482H107.381V23.9995H86.7998V0.024353Z" fill="#252C42"/>
<path d="M118.541 11.7781L108.902 0H116.369L122.261 7.21964L128.235 0H135.566L125.927 11.7042L136 23.9751H128.588L122.18 16.2134L115.772 23.9751H108.495L118.541 11.7781Z" fill="#252C42"/>
<path d="M6.76153 17.8645H0V24H6.76153V17.8645Z" fill="#E6313F"/>
<path d="M6.76153 8.94423H0V15.0797H6.76153V8.94423Z" fill="#252C42"/>
<path d="M6.76153 0.0239258H0V6.15939H6.76153V0.0239258Z" fill="#252C42"/>
</svg>
