<svg width="100" height="100" viewBox="0 0 100 100" fill="none" xmlns="http://www.w3.org/2000/svg">
<circle cx="50" cy="50" r="50" fill="#E5313F"/>
<path d="M38.8133 35.4063L61.9883 48.7863C62.9225 49.3257 62.9225 50.6745 61.9883 51.2139L38.8133 64.5939C37.8791 65.1333 36.7109 64.4589 36.7109 63.3801V36.6201C36.7109 35.5413 37.8785 34.8669 38.8133 35.4063Z" fill="white"/>
<path d="M61.9886 48.7863L38.8136 35.4063C38.6738 35.3259 38.5292 35.2803 38.384 35.2509L60.7886 48.1863C61.7228 48.7257 61.7228 50.0745 60.7886 50.6139L37.6136 63.9939C37.4042 64.1145 37.184 64.1667 36.9668 64.1745C37.3604 64.7373 38.1434 64.9803 38.8136 64.5939L61.9886 51.2139C62.9228 50.6745 62.9228 49.3257 61.9886 48.7863Z" fill="white"/>
<path d="M38.8133 35.4063L61.9883 48.7863C62.9225 49.3257 62.9225 50.6745 61.9883 51.2139L38.8133 64.5939C37.8791 65.1333 36.7109 64.4589 36.7109 63.3801V36.6201C36.7109 35.5413 37.8785 34.8669 38.8133 35.4063Z" stroke="white" stroke-miterlimit="10"/>
</svg>
