<svg width="40" height="40" viewBox="0 0 40 40" fill="none" xmlns="http://www.w3.org/2000/svg">
<path d="M35.7119 35.015C35.9885 35.015 36.2502 34.8904 36.4243 34.6754C36.5985 34.4606 36.6664 34.1787 36.6093 33.9082L36.0317 31.175C36.3606 30.8568 36.5674 30.4126 36.5674 29.9186C36.5674 29.3986 36.3358 28.9374 35.9763 28.6169V19.1254L33.6611 20.5582V28.6169C33.3016 28.9374 33.07 29.3986 33.07 29.9186C33.07 30.4126 33.2768 30.8569 33.6057 31.175L33.0281 33.9082C32.9709 34.1788 33.0389 34.4606 33.213 34.6754C33.3872 34.8903 33.6488 35.015 33.9254 35.015H35.7119ZM36.4967 13.5868L21.4349 4.26309C20.9938 3.99138 20.4965 3.85498 19.9992 3.85498C19.502 3.85498 19.0043 3.99127 18.5659 4.26309L3.50388 13.5868C3.10169 13.8357 2.85742 14.2752 2.85742 14.7483C2.85742 15.2214 3.10169 15.6611 3.50388 15.9104L18.5658 25.2342C19.0043 25.5062 19.5019 25.6423 19.9992 25.6423C20.4964 25.6423 20.9938 25.506 21.4348 25.2342L36.4967 15.9104C36.8989 15.6612 37.1431 15.2214 37.1431 14.7483C37.1431 14.2752 36.8989 13.8355 36.4967 13.5868ZM19.9992 27.9574C19.0609 27.9574 18.1452 27.6968 17.347 27.2028L8.56132 21.7637V31.1293C8.56132 33.9012 13.6846 36.145 19.9992 36.145C26.3159 36.145 31.4388 33.9011 31.4388 31.1293V21.7637L22.6535 27.2028C21.8553 27.6968 20.9374 27.9574 19.9992 27.9574Z" fill="#E5313F"/>
</svg>
