<svg width="40" height="40" viewBox="0 0 40 40" fill="none" xmlns="http://www.w3.org/2000/svg">
<g clip-path="url(#clip0_220_964)">
<path d="M19.7105 18.4607C24.4401 15.6516 27.7253 15.59 30.3063 16.7014C30.7824 16.9059 31.081 17.0996 31.2041 17.2046L32.6666 18.4607V1.86646L32.3589 1.60222C32.1054 1.385 31.6566 1.09541 31.0068 0.814857C27.8936 -0.524578 24.0147 -0.414175 18.8073 2.67919C15.4714 4.66114 12.9247 4.93447 10.9844 4.06024L11.0749 19.9178C13.3536 20.5061 16.438 20.4048 19.7105 18.4607Z" fill="#E5313F"/>
<path d="M9.10222 2.67554L7.33203 2.67917V40.0001H9.10222C9.10222 40.0001 9.2199 2.80584 9.10222 2.67554Z" fill="#E5313F"/>
</g>
<defs>
<clipPath id="clip0_220_964">
<rect width="40" height="40.0001" fill="white"/>
</clipPath>
</defs>
</svg>
