<svg width="40" height="40" viewBox="0 0 40 40" fill="none" xmlns="http://www.w3.org/2000/svg">
<path d="M35 30V31.6667C35 32.5507 34.6488 33.3986 34.0237 34.0237C33.3986 34.6488 32.5507 35 31.6667 35H8.33333C6.48333 35 5 33.5 5 31.6667V8.33333C5 7.44928 5.35119 6.60143 5.97631 5.97631C6.60143 5.35119 7.44928 5 8.33333 5H31.6667C32.5507 5 33.3986 5.35119 34.0237 5.97631C34.6488 6.60143 35 7.44928 35 8.33333V10H20C18.15 10 16.6667 11.5 16.6667 13.3333V26.6667C16.6667 27.5507 17.0179 28.3986 17.643 29.0237C18.2681 29.6488 19.1159 30 20 30H35ZM20 26.6667H36.6667V13.3333H20V26.6667ZM26.6667 22.5C26.0036 22.5 25.3677 22.2366 24.8989 21.7678C24.4301 21.2989 24.1667 20.663 24.1667 20C24.1667 19.337 24.4301 18.7011 24.8989 18.2322C25.3677 17.7634 26.0036 17.5 26.6667 17.5C27.3297 17.5 27.9656 17.7634 28.4344 18.2322C28.9033 18.7011 29.1667 19.337 29.1667 20C29.1667 20.663 28.9033 21.2989 28.4344 21.7678C27.9656 22.2366 27.3297 22.5 26.6667 22.5Z" fill="#E5313F"/>
</svg>
