<svg width="40" height="37" viewBox="0 0 40 37" fill="none" xmlns="http://www.w3.org/2000/svg">
<g clip-path="url(#clip0_220_951)">
<path d="M39.3335 35.333V9.33362H31.333V35.333H29.3335V14.6673H21.333V35.333H19.3335V20.0001H11.3338V35.333H9.33269V26.0003H1.33302V35.333H0.666499C0.298673 35.333 0 35.6316 0 36.0003C0 36.3681 0.298673 36.6668 0.666499 36.6668H1.33302H9.33269H11.3338H19.3335H21.333H29.3335H31.333H39.3335C39.7005 36.6668 40 36.3681 40 36.0003C40 35.6316 39.7005 35.333 39.3335 35.333Z" fill="#E5313F"/>
<path d="M5.35294 16.8873C5.46525 16.8873 5.58082 16.858 5.68578 16.7978L29.8638 2.83779L28.351 6.16462C28.1988 6.4999 28.3469 6.89461 28.6822 7.04759C28.7717 7.0883 28.8653 7.107 28.9581 7.107C29.212 7.107 29.4529 6.96215 29.5643 6.71637L31.9399 1.49665C31.9472 1.47956 31.9448 1.46165 31.9513 1.44458C31.9642 1.40958 31.9732 1.3754 31.9797 1.33797C31.9838 1.32006 31.9944 1.30378 31.996 1.28506C31.9968 1.27692 31.9928 1.27042 31.9944 1.26309C31.996 1.23704 31.9927 1.21426 31.9919 1.18821C31.9895 1.15242 31.983 1.1166 31.9748 1.08079C31.97 1.05476 31.9683 1.02872 31.9602 1.00512C31.9513 0.9807 31.9382 0.960355 31.9268 0.937575C31.9187 0.921294 31.9187 0.903389 31.9097 0.887124C31.9008 0.871654 31.8853 0.861888 31.8748 0.846419C31.8601 0.826074 31.8495 0.804106 31.8333 0.784577C31.8162 0.765044 31.7942 0.751219 31.7747 0.73331C31.747 0.708886 31.7193 0.686106 31.69 0.665765C31.6688 0.652747 31.6493 0.63809 31.6274 0.627512C31.6192 0.624264 31.6152 0.616933 31.6087 0.613686C31.5923 0.605543 31.5736 0.607983 31.5565 0.602276C31.5208 0.58845 31.4849 0.578684 31.4459 0.572169C31.4296 0.56973 31.415 0.558343 31.397 0.556716L25.6899 0.00332556C25.3204 -0.0333002 24.9973 0.23689 24.9623 0.602276C24.9257 0.96931 25.1934 1.29564 25.5612 1.33064L29.1973 1.68301L5.01929 15.643C4.70027 15.8269 4.59122 16.2346 4.77433 16.5536C4.89803 16.7677 5.12183 16.8873 5.35294 16.8873Z" fill="#E5313F"/>
</g>
<defs>
<clipPath id="clip0_220_951">
<rect width="40" height="36.6667" fill="white"/>
</clipPath>
</defs>
</svg>
