<svg width="1802" height="389" viewBox="0 0 1802 389" fill="none" xmlns="http://www.w3.org/2000/svg">
<path opacity="0.2" d="M1801.2 388.9H1675.6L1674.4 387.1L1595 264.4L1514.3 388.9H1388.1L1523.9 189.6L1396.7 3.05176e-05H1522.3L1523.5 1.90003L1594.9 115.8L1666.3 3.05176e-05H1792.5L1788.3 6.20003L1666 189L1801.2 388.9ZM1677.7 384.9H1793.6L1661.1 189L1785 4.00003H1668.5L1595 123.4L1520.2 4.00003H1404.3L1528.8 189.6L1528 190.7L1395.7 384.9H1512.2L1595 257L1677.7 384.9ZM1383.2 388.9H1096V3.05176e-05H1383.2V93.6H1202.2V145H1379.2V238.7H1202.2V295.2H1383.2V388.9ZM1100 384.9H1379.2V299.2H1198.2V234.7H1375.2V149H1198.2V89.7H1379.2V4.00003H1100V384.9ZM951 388.9H844.8V93.7H738V3.05176e-05H1057.2V93.6H951V388.9ZM848.8 384.9H947V89.7H1053.2V4.00003H742V89.6H848.8V384.9ZM776.5 388.9H656.5L637.7 334.1H493.2L474.4 388.9H354.4L356.4 383.5L500.7 3.05176e-05H629.6L630.6 2.60003L776.5 388.9ZM659.4 384.9H770.7L626.8 4.00003H503.5L360.2 384.9H471.5L490.3 330.1H640.5L659.4 384.9ZM164.7 388.9H0.299805V3.05176e-05H164.2C225 3.05176e-05 277.1 17.9 314.8 51.8C353.7 86.7 374.2 135.9 374.2 194.2C374.2 252.5 353.7 301.8 314.9 336.9C277.2 370.9 225.2 388.9 164.7 388.9ZM4.2998 384.9H164.8C224.3 384.9 275.3 367.3 312.3 333.9C350.3 299.7 370.3 251.4 370.3 194.2C370.3 137.1 350.2 88.9 312.2 54.8C275.2 21.6 224 4.10003 164.2 4.10003H4.2998V384.9ZM164.1 299.2H102.4V89.7H164.6C197.6 89.7 224.8 100.1 243.3 119.9C260.6 138.4 269.7 164.1 269.7 194.2C269.7 222.7 259.8 248.9 241.9 267.9C222.7 288.4 195.8 299.2 164.1 299.2ZM106.5 295.2H164.2C194.7 295.2 220.7 284.8 239.2 265.1C256.4 246.8 265.9 221.6 265.9 194.1C265.9 165 257.1 140.2 240.6 122.5C222.9 103.6 196.7 93.6 164.9 93.6H106.7V295.2H106.5ZM613.7 244.4H516.6L565.1 101.1L613.7 244.4ZM522.2 240.4H608.1L565.1 113.5L522.2 240.4Z" fill="white"/>
</svg>
