<svg width="20" height="20" viewBox="0 0 20 20" fill="none" xmlns="http://www.w3.org/2000/svg">
<path d="M13.3334 1.66663C16.0948 1.66663 18.3334 3.9052 18.3334 6.66663C18.3334 7.94771 17.8483 9.15354 16.9968 10.0695L16.8386 10.232L9.566 17.5044L9.52175 17.5456L9.47533 17.583C8.91758 18.0632 8.20511 18.3333 7.45258 18.3333C5.73999 18.3333 4.35166 16.945 4.35166 15.2324C4.35166 14.4812 4.62084 13.7706 5.09796 13.2145L5.22153 13.0787L5.2341 13.0688L11.3099 6.98228C11.6351 6.65657 12.1627 6.6561 12.4885 6.98125C12.8142 7.30641 12.8147 7.83404 12.4895 8.15977L6.41365 14.2463L6.40453 14.2532C6.15761 14.5173 6.01832 14.8628 6.01832 15.2324C6.01832 16.0245 6.66046 16.6666 7.45258 16.6666C7.76837 16.6666 8.06666 16.565 8.31193 16.3809L8.41366 16.297L8.41433 16.2983L15.6663 9.04754L15.7985 8.91054C16.3527 8.30245 16.6667 7.51038 16.6667 6.66663C16.6667 4.82568 15.1744 3.33329 13.3334 3.33329C12.4487 3.33329 11.6212 3.67879 11.0042 4.28211L10.8752 4.41531L10.8598 4.42612L3.08874 12.2002C2.76337 12.5257 2.23574 12.5258 1.91022 12.2005C1.58471 11.875 1.5846 11.3475 1.90996 11.022L9.66741 3.26099L9.70625 3.22513C10.6428 2.2381 11.9432 1.66663 13.3334 1.66663Z" fill="#E5313F"/>
</svg>
