<svg width="20" height="20" viewBox="0 0 20 20" fill="none" xmlns="http://www.w3.org/2000/svg">
<path d="M17.6922 7.80803C17.6922 3.55982 14.2484 0.115723 9.99992 0.115723C5.75172 0.115723 2.30762 3.55982 2.30762 7.80803C2.30762 9.62495 2.93941 11.2942 3.99275 12.6103C3.993 12.6106 3.99326 12.6111 3.993 12.6114C3.99275 12.6116 3.99249 12.6119 3.99198 12.6119C5.97813 15.0924 8.78505 18.5983 9.69941 19.7401C9.77249 19.8311 9.883 19.8842 9.99967 19.8844C10.1166 19.8844 10.2274 19.8316 10.3002 19.7403C11.214 18.5988 14.0202 15.0944 16.0063 12.6137C16.0066 12.6134 16.0068 12.6129 16.0066 12.6126C16.0063 12.6124 16.0061 12.6121 16.0056 12.6121C17.0599 11.2955 17.6922 9.62624 17.6922 7.80803ZM14.7607 11.7078L9.99992 17.6542L5.28531 11.766L5.2371 11.706C5.223 11.6867 5.20864 11.6678 5.19377 11.6491C4.31198 10.5473 3.84608 9.21906 3.84608 7.80803C3.84608 4.4147 6.60685 1.65418 9.99992 1.65418C13.393 1.65418 16.1538 4.4147 16.1538 7.80803C16.1538 9.21982 15.6874 10.5485 14.8045 11.6506C14.7897 11.6693 14.7751 11.6883 14.7607 11.7078Z" fill="white"/>
<path d="M9.99967 9.16683C10.9201 9.16683 11.6663 8.42064 11.6663 7.50016C11.6663 6.57969 10.9201 5.8335 9.99967 5.8335C9.0792 5.8335 8.33301 6.57969 8.33301 7.50016C8.33301 8.42064 9.0792 9.16683 9.99967 9.16683Z" fill="white"/>
</svg>
